<svg width="528" height="354" viewBox="0 0 528 354" fill="none" xmlns="http://www.w3.org/2000/svg">
<g clip-path="url(#clip0_58_1467)">
<path d="M61.7002 302.3C75.6002 270.4 97.8002 230.5 117.7 201.6C126.4 189 135.7 176.6 148.2 167.2C155.6 161.6 164.9 157.1 174.2 158.6C186.6 160.6 194.1 172.1 200.1 182.5C214.5 207.7 228.6 233.4 248.1 255.4C267.5 277.4 293 295.9 322.7 302.2" fill="url(#paint0_linear_58_1467)"/>
<path d="M441.7 304.3C425.9 285.7 400.6 262.4 378 245.6C368.1 238.3 357.5 231 343.3 225.5C334.9 222.2 324.3 219.6 313.7 220.5C299.6 221.7 291 228.4 284.3 234.5C267.9 249.2 251.8 264.2 229.7 277C207.6 289.9 178.6 300.6 144.8 304.3" fill="url(#paint1_linear_58_1467)"/>
<path d="M112.7 293.9C110.8 291.8 109.7 289 109.7 286.2C109.7 283.4 110.2 280.5 111.2 277.9C112.1 275.3 113.2 272.7 114.4 270.2C117.3 264.1 120.4 258.2 123.8 252.4C126.9 257.2 129.7 262 132.3 267C135.7 273.4 138.7 280.2 138.5 287.4C138.5 289.6 137.9 291.8 136.8 293.8C134.2 297.9 129.6 297.9 125.3 297.6C121 297.3 116.1 297.3 112.7 293.9Z" fill="#C5F2F9"/>
<path d="M129.2 278L124.1 284.8L124 277.7L128.4 271.3L124 277L123.8 269.2L123.7 276.6L120.9 272.2L123.7 277.4L123.6 289.4L119.2 281.4L123.6 291.7L123.5 302.7H124.6L124.3 286.5L129.2 278Z" fill="#A2E9F5"/>
<path d="M347.7 293.9C345.8 291.8 344.7 289 344.7 286.2C344.7 283.4 345.2 280.5 346.2 277.9C347.1 275.3 348.2 272.7 349.4 270.2C352.3 264.1 355.4 258.2 358.8 252.4C361.9 257.2 364.7 262 367.3 267C370.7 273.4 373.7 280.2 373.5 287.4C373.5 289.6 372.9 291.8 371.8 293.8C369.2 297.9 364.6 297.9 360.3 297.6C356 297.3 351.1 297.3 347.7 293.9Z" fill="#C5F2F9"/>
<path d="M364.2 278L359.1 284.8L359 277.7L363.4 271.3L359 277L358.8 269.2L358.7 276.6L355.9 272.2L358.7 277.4L358.6 289.4L354.2 281.4L358.6 291.7L358.5 302.7H359.6L359.3 286.5L364.2 278Z" fill="#A2E9F5"/>
<path d="M92.4 257.4C90.5 254.7 88.8 251.9 87.5 248.8C86.8 247 86.4 245.1 86.1 243.2C85.4 239.7 85.5 236.2 86.4 232.8C86.8 231.1 87.6 229.5 88.7 228.1C89.8 226.7 91.1 225.5 92.6 224.6C95.2 223.3 98.1 222.9 101 223.5C102 223.7 103 224 103.9 224.6C104.8 225.2 105.5 225.9 106.1 226.7C108.9 230.6 110.4 235.3 110.1 240.1C109.8 244.9 108.5 249.6 106.2 253.8C104.7 256.6 103.1 259.3 101.2 261.8C100.7 262.4 100.3 263.1 99.8 263.7C99.5 264.1 98.9 265.3 98.4 265.5C97.7 265.7 96.1 262.6 95.6 262C94.5 260.6 93.5 259 92.4 257.4Z" fill="#C5F2F9"/>
<path fill-rule="evenodd" clip-rule="evenodd" d="M97.2999 303.2L97.5999 259.1L91.8999 248.4H92.8999L97.5999 256.5L97.6999 242.8C96.6999 241.1 93.7999 236.6 93.7999 236.6L94.5999 236.5L97.6999 241.1L97.7999 232.7H98.6999L98.7999 240.7L102.4 235.9L103.1 236.3L98.7999 242.6L98.8999 251.4L104 243.6L104.3 244.4L98.8999 253.6L99.3999 303.3H97.2999V303.2Z" fill="#A2E9F5"/>
<path d="M374.4 257.4C372.5 254.7 370.8 251.9 369.5 248.8C368.8 247 368.4 245.1 368.1 243.2C367.4 239.7 367.5 236.2 368.4 232.8C368.8 231.1 369.6 229.5 370.7 228.1C371.8 226.7 373.1 225.5 374.6 224.6C377.2 223.3 380.1 222.9 383 223.5C384 223.7 385 224 385.9 224.6C386.8 225.2 387.5 225.9 388.1 226.7C390.9 230.6 392.4 235.3 392.1 240.1C391.8 244.9 390.5 249.6 388.2 253.8C386.7 256.6 385.1 259.3 383.2 261.8C382.7 262.4 382.3 263.1 381.8 263.7C381.5 264.1 380.9 265.3 380.4 265.5C379.7 265.7 378.1 262.6 377.6 262C376.5 260.6 375.5 259 374.4 257.4Z" fill="#C5F2F9"/>
<path fill-rule="evenodd" clip-rule="evenodd" d="M379.3 303.2L379.6 259.1L373.9 248.4H374.9L379.6 256.5L379.7 242.8C378.7 241.1 375.8 236.6 375.8 236.6L376.6 236.5L379.7 241.1L379.8 232.7H380.7L380.8 240.7L384.4 235.9L385.1 236.3L380.8 242.6L380.9 251.4L386 243.6L386.3 244.4L380.9 253.6L381.4 303.3H379.3V303.2Z" fill="#A2E9F5"/>
<path opacity="0.6" d="M468.8 312.3C501.4 315.1 521.3 306.7 527.2 302.2H27.7002V309.4C34.9002 307.8 56.4002 306.2 84.6002 312.3C112.8 318.4 136 322.6 180.2 316C191.6 313.6 226 310.3 254.7 316C282.6 327.7 341.9 318.7 370.7 316C389.8 313.7 436.3 309.6 468.8 312.3Z" fill="#7DE3F4"/>
<path fill-rule="evenodd" clip-rule="evenodd" d="M323.7 245.2C330.3 250.4 334.5 258.5 334.5 267.5C334.5 283.2 321.8 295.9 306.1 295.9V159.3C315.9 159.3 323.9 167.3 323.9 177.1C323.9 182.9 321.1 188 316.9 191.3C321.2 194.5 323.9 199.7 323.9 205.5C323.9 210 322.2 214.1 319.5 217.2C324.3 221.1 327.3 227 327.3 233.6C327.2 237.8 325.9 241.8 323.7 245.2ZM306.1 159.3V295.9C290.4 295.9 277.7 283.2 277.7 267.5C277.7 258.5 281.9 250.4 288.5 245.2C286.3 241.9 285 237.8 285 233.5C285 226.9 288 221 292.8 217.1C290 214 288.4 209.9 288.4 205.4C288.4 199.6 291.2 194.5 295.4 191.2C291.1 188 288.4 182.8 288.4 177C288.3 167.2 296.3 159.3 306.1 159.3Z" fill="#A7F0FD"/>
<path fill-rule="evenodd" clip-rule="evenodd" d="M306.1 265.4C307.2 265.4 308.1 266.3 308.1 267.4V328.6C308.1 329.7 307.2 330.6 306.1 330.6C305 330.6 304.1 329.7 304.1 328.6V267.4C304.1 266.3 305 265.4 306.1 265.4Z" fill="#82DAEA"/>
<path fill-rule="evenodd" clip-rule="evenodd" d="M320.6 267.7C321.4 268.5 321.4 269.7 320.6 270.5L307.5 283.6C306.7 284.4 305.5 284.4 304.7 283.6C303.9 282.8 303.9 281.6 304.7 280.8L317.8 267.7C318.6 267 319.8 267 320.6 267.7Z" fill="#82DAEA"/>
<path d="M166.9 347.7H205.2" stroke="#01B6D1" stroke-width="2" stroke-linecap="round" stroke-linejoin="round"/>
<path d="M146.1 347.7H153" stroke="#01B6D1" stroke-width="2" stroke-linecap="round" stroke-linejoin="round"/>
<path d="M404.9 92.3V351.7" stroke="#003057" stroke-width="4.393" stroke-miterlimit="10" stroke-linecap="round" stroke-linejoin="round"/>
<path d="M444.5 92.3V351.7" stroke="#003057" stroke-width="4.393" stroke-miterlimit="10" stroke-linecap="round" stroke-linejoin="round"/>
<path d="M404.9 119.4H442.3" stroke="#003057" stroke-width="4.7931" stroke-miterlimit="10" stroke-linecap="round" stroke-linejoin="round"/>
<path d="M404.9 145.4H442.3" stroke="#003057" stroke-width="4.7931" stroke-miterlimit="10" stroke-linecap="round" stroke-linejoin="round"/>
<path d="M404.9 171.4H442.3" stroke="#003057" stroke-width="4.7931" stroke-miterlimit="10" stroke-linecap="round" stroke-linejoin="round"/>
<path d="M404.9 197.4H442.3" stroke="#003057" stroke-width="4.7931" stroke-miterlimit="10" stroke-linecap="round" stroke-linejoin="round"/>
<path d="M404.9 223.4H442.3" stroke="#003057" stroke-width="4.7931" stroke-miterlimit="10" stroke-linecap="round" stroke-linejoin="round"/>
<path d="M404.9 249.4H442.3" stroke="#003057" stroke-width="4.7931" stroke-miterlimit="10" stroke-linecap="round" stroke-linejoin="round"/>
<path d="M404.9 275.4H442.3" stroke="#003057" stroke-width="4.7931" stroke-miterlimit="10" stroke-linecap="round" stroke-linejoin="round"/>
<path d="M404.9 301.4H442.3" stroke="#003057" stroke-width="4.7931" stroke-miterlimit="10" stroke-linecap="round" stroke-linejoin="round"/>
<path d="M404.9 327.4H442.3" stroke="#003057" stroke-width="4.7931" stroke-miterlimit="10" stroke-linecap="round" stroke-linejoin="round"/>
<path d="M224 209.4V110" stroke="#3B3E54" stroke-width="5" stroke-miterlimit="10" stroke-linecap="round" stroke-linejoin="round"/>
<path d="M224 156.8L240.5 140.3" stroke="#3B3E54" stroke-width="5" stroke-miterlimit="10" stroke-linecap="round" stroke-linejoin="round"/>
<path d="M224 166.7L207 149.7" stroke="#3B3E54" stroke-width="5" stroke-miterlimit="10" stroke-linecap="round" stroke-linejoin="round"/>
<path d="M275.6 105.3L234.6 146.3C234.6 146.3 252.3 145.7 263.7 134.3C275 123 275.6 105.3 275.6 105.3Z" fill="#003057"/>
<path d="M246.6 117.3C235.3 128.6 234.6 146.4 234.6 146.4L275.6 105.4C275.6 105.3 257.9 105.9 246.6 117.3Z" fill="#006184"/>
<path d="M210.6 153.3L170.8 113.5C170.8 113.5 171.4 130.7 182.4 141.7C193.4 152.6 210.6 153.3 210.6 153.3Z" fill="#003057"/>
<path d="M199 125.1C188 114.1 170.8 113.5 170.8 113.5L210.6 153.3C210.6 153.3 210 136.1 199 125.1Z" fill="#006184"/>
<path d="M86.2001 283.7C86.2001 283.6 86.2001 283.5 86.3001 283.4C86.6001 282.5 87.5001 281.9 88.4001 282.2L100.5 285.4C101.4 285.7 102 286.6 101.7 287.5C101.4 288.4 100.5 289 99.6001 288.7L87.5001 285.5C86.6001 285.3 86.1001 284.5 86.2001 283.7Z" fill="#C3DBE8"/>
<path d="M89.8998 282.2C89.8998 282.2 86.4998 279.1 85.8998 280C85.2998 280.9 77.4998 294.3 78.0998 294.7C80.0998 296.1 88.0998 286.1 88.4998 284.9C88.7998 283.7 90.3998 282.6 89.8998 282.2Z" fill="#3B3E54"/>
<path d="M200.6 189.4C200.6 189.4 208 184.4 210.2 185.1C212.3 185.8 205.8 191.3 200.4 191.6L200.6 189.4Z" fill="white"/>
<path d="M200.4 188.4C201.2 189.6 202.1 190.8 202.8 192C183.2 204.2 173.5 207.5 153.5 194.9C150.4 193 151 191.7 153 189.7C152.6 189.2 152.6 189.2 153 189.7C154.9 187.7 156 188.1 158.7 189.8C176.1 201 182.6 197 200.4 188.4Z" fill="#124972"/>
<path d="M180.8 344.2C180.7 344.3 180.6 344.3 180.5 344.3C179.6 344.6 178.6 344 178.3 343.1L174.8 331.1C174.5 330.2 175.1 329.2 176 328.9C176.9 328.6 177.9 329.2 178.2 330.1L181.7 342.1C181.9 343 181.5 343.8 180.8 344.2Z" fill="#C3DBE8"/>
<path d="M181.2 335.7C179.6 336.7 178 337.7 176.2 338.6C165.7 307.7 161 267.4 149 239.9C153.6 238.1 158.2 236.4 162.9 234.6C174.1 267.2 165.6 298 181.2 335.7Z" fill="#124A72"/>
<path d="M92.3999 288.7C92.9999 286.7 93.5999 284.8 94.3999 282.9C135.9 296.1 160.4 284.9 146 236.5C150.9 234.6 155.8 232.9 160.8 231.4C168.8 286 143.8 307.3 92.3999 288.7Z" fill="#2C6B99"/>
<path d="M153.6 167.1C151.9 167.4 150.3 169.1 150.2 170.9C150.1 172.7 151.8 174 153.5 174.1C155.2 174.2 157.9 171.7 158 169.9C158 168.1 155.7 166.7 153.6 167.1Z" fill="#1A1C2E"/>
<path d="M144.3 164.2C140.7 162.7 135.3 163.7 132.8 167C130.3 170.3 131.8 175.1 135 177.4C138.1 179.8 145.4 179.7 149.5 175.1C152.2 172 148.9 166.1 144.3 164.2Z" fill="#1A1C2E"/>
<path d="M152.5 176.4C149.8 175.3 145.9 175.9 144.1 178.2C142.3 180.5 143.5 184 145.9 185.8C148.2 187.6 154.4 186.8 156.2 184.4C157.9 182.2 155.9 177.9 152.5 176.4Z" fill="#1A1C2E"/>
<path d="M149.9 180.5C153.4 184.4 159 185.2 161.4 183.1C163.8 181 162.1 176.8 158.7 172.8C155.2 168.9 151.5 168.6 149.1 170.7C146.6 172.8 146.4 176.5 149.9 180.5Z" fill="white"/>
<path d="M149.3 183.4C150.1 184.3 152.1 184.7 152.7 184.1C153.4 183.5 152.9 182.6 152.1 181.7C151.3 180.8 150 180.4 149.3 181C148.7 181.6 148.5 182.5 149.3 183.4Z" fill="white"/>
<path d="M147.1 178.5C147.1 178.5 145.7 175.2 146.9 172.6C148.1 169.9 152 166.7 155.9 169.5C155.9 169.5 158.5 171.7 155.6 174.6C152.7 177.5 151.9 175.3 151.6 178.2C151.2 181 148.9 180.9 148.9 181.5L147.1 178.5Z" fill="#1A1C2E"/>
<path d="M166.1 242.8C162 243.4 158.6 242.4 154.8 240.7C151.9 239.4 148.4 239.1 145.4 238.3C141.8 225.8 142.1 204.6 146.1 195.8C149.6 188.1 149.8 189.2 151.3 188.4C153.4 187.2 156 187.2 158 188.6L158.1 188.7C160.4 190.4 161 194.6 161.8 199C162.6 203.4 164.2 202.4 161.3 210.5C159.9 214.1 165.4 236.2 166.1 242.8Z" fill="#2D9CDB"/>
<path d="M151.9 179.1L157.4 178.9C157.4 179.7 157.5 186.8 157.1 189.5C156.8 190.3 155.5 190.6 154 190.2C152.7 189.8 151.8 188.9 151.8 188.2C152.1 186.5 152 181.7 151.9 179.1Z" fill="white"/>
<path d="M178 342.2C178 342.2 176.9 346.7 178 346.8C179.1 346.9 194.6 347.4 194.7 346.7C195 344.2 182.4 342 181.1 342.2C179.8 342.5 178.1 341.6 178 342.2Z" fill="#3B3E54"/>
<path d="M192.2 178.9L197.6 242H223.8V178.9H192.2Z" fill="#006184"/>
<path d="M255.3 178.9H223.8V242H250L255.3 178.9Z" fill="#003057"/>
<path d="M257.2 190.7H190.3C188.5 190.7 187 189.2 187 187.3V175.1C187 173.3 188.5 171.7 190.3 171.7H257.2C259 171.7 260.5 173.2 260.5 175.1V187.3C260.6 189.2 259.1 190.7 257.2 190.7Z" fill="#01B6D1"/>
<path d="M199.7 200.9C199.7 200.9 205.5 193.5 207.8 193.4C210.2 193.4 205.5 201.1 200.2 203.1L199.7 200.9Z" fill="white"/>
<path d="M200.9 198.9C202 200 202.9 200.8 204.1 202C181.4 221.1 173 218.8 149.7 202.8C146.1 200.4 150.2 194.1 155.8 198.8C175.3 215.2 179.2 213.1 200.9 198.9Z" fill="#124972"/>
<path d="M220.1 19.3C206.1 5.30005 183.3 5.30005 169.3 19.3C155.3 33.3 155.3 56.1 169.3 70.1L223.9 124.7V23L220.1 19.3Z" fill="#BD0057"/>
<path d="M227.5 19.3C241.5 5.30005 264.3 5.30005 278.3 19.3C292.3 33.3 292.3 56.1 278.3 70.1L223.7 124.7V23L227.5 19.3Z" fill="#8F124A"/>
<path d="M447.6 192.6C447.7 192.6 447.9 192.6 448 192.6C449 192.4 449.7 191.4 449.5 190.4L446.8 177.1C446.6 176.1 445.6 175.4 444.6 175.6C443.6 175.8 442.9 176.8 443.1 177.8L445.8 191.1C446 191.9 446.7 192.6 447.6 192.6Z" fill="#B1CEDD"/>
<path d="M450 190.1C450 190.1 451.2 194.9 450 195.1C448.8 195.2 432.1 195.7 432 195C431.7 192.3 445.4 189.9 446.7 190.2C448 190.3 449.8 189.4 450 190.1Z" fill="#3B3E54"/>
<path d="M370.1 32.0999C370.1 32.0999 364.8 23.9999 362.3 23.7999C359.9 23.5999 364.1 31.8999 369.4 34.3999L370.1 32.0999Z" fill="#B1CEDD"/>
<path d="M370.4 30.7C369.5 32 368.5 33.1 367.6 34.4C386.5 49.7 401 51.1999 421.2 38.5999C424.3 36.6999 424 35.4 422.2 33C422.4 32.5 422.5 32.5 422.2 33C420.4 30.6 419.4 30.5 416.3 32.5C395.6 45.2 391.3 42.5 370.4 30.7Z" fill="#124972"/>
<path d="M414.8 192.6C414.9 192.6 415.1 192.6 415.2 192.6C416.2 192.4 416.9 191.4 416.7 190.4L414 177C413.8 176 412.8 175.3 411.8 175.5C410.8 175.7 410.1 176.7 410.3 177.7L413 191C413.2 191.9 413.9 192.6 414.8 192.6Z" fill="#B1CEDD"/>
<path d="M410.7 184.9C412.7 184.8 414.7 184.6 416.7 184.3C410.7 152.4 406.2 109.6 422.2 79.9C417.4 77.5 412.5 75.2 407.6 72.9C395.9 98.8 405.8 157.4 410.7 184.9Z" fill="#124972"/>
<path d="M443.7 184C445.7 183.4 447.7 182.8 449.6 182C434.7 152.8 423.8 107 426.4 73.8C421 73.5 415.5 73.3 410.1 73.2C412.1 106.3 430.8 154 443.7 184Z" fill="#2C6B99"/>
<path d="M417.2 190.1C417.2 190.1 418.4 194.9 417.2 195.1C416 195.2 399.3 195.7 399.2 195C398.9 192.3 412.6 189.9 413.9 190.2C415.2 190.3 417 189.4 417.2 190.1Z" fill="#3B3E54"/>
<path d="M427.2 83C424.6 82 420.9 81 414.3 80.7C409.9 80.5 406.4 80.7 403.6 81C415 56.4 417 44.2 416 37.3C415.5 33.9 416.8 30.4 419.6 28.3L420 28L420.7 27.5C423.2 25.6 426.2 25.3 428.8 26.3C431.5 27.3 433.6 29.5 434.2 32.6C434.6 34.7 434.9 37 435 39.7C435.7 52.4 434 66.2 427.2 83Z" fill="#2D9CDB"/>
<path d="M397.1 60.7C397.1 60.7 388.2 55.7 385.8 56.7C383.4 57.7 391.4 63.3 397.5 63.2L397.1 60.7Z" fill="#B1CEDD"/>
<path d="M395.3 59.0999C394.9 60.6999 394.6 62.1999 394.2 63.5999C419.7 69.7999 439.6 65.0999 433.7 35.0999C432.8 30.4999 431.9 31.4999 429.1 31.8999C428.4 31.5999 428.7 31.5999 429.1 31.8999C426.4 32.2999 424.8 32.8999 426 36.9999C433.6 63.9999 415.7 60.2999 395.3 59.0999Z" fill="#124972"/>
<path d="M428.7 26.2001L423.2 38.3001L419 47.5001L419.5 36.8001L419.9 28.0001L420.6 27.5001C423.1 25.6001 426.1 25.3001 428.7 26.2001Z" fill="#D0F1F2"/>
<path d="M429.2 16.9C427.1 22.2 421.6 25 418.4 23.6C415.2 22.3 415.4 17.4 417.5 12.1C419.6 6.79999 423.3 5.19999 426.6 6.49999C429.8 7.89999 431.4 11.6 429.2 16.9Z" fill="#B1CEDD"/>
<path d="M430.8 19.7001C430.3 20.9001 428.4 22.0001 427.6 21.6001C426.7 21.2001 426.9 20.2001 427.4 18.9001C427.9 17.6001 429.1 16.8001 430 17.2001C430.9 17.6001 431.3 18.5001 430.8 19.7001Z" fill="#B1CEDD"/>
<path d="M431.3 13.9C431.3 13.9 431.6 10.1 429.4 7.80002C427.3 5.50002 422.1 3.60002 419.1 7.90002C419.1 7.90002 417.2 11.1 421.3 13C425.3 14.9 425.3 12.4 426.7 15.2C428.1 18 430.4 17 430.7 17.6L431.3 13.9Z" fill="#333333"/>
<path d="M428.3 17.1L422.4 16.5C422.3 17.3 421.7 25.1 422 28C422.2 28.9 423.7 29.3 425.3 28.9C426.7 28.5 427.8 27.7 427.8 26.8C427.6 25.1 428 19.9 428.3 17.1Z" fill="#B1CEDD"/>
<path d="M426.7 19.1C425.7 18.3 425 19.3 423.2 20.9C421.4 22.5 417.6 22.9 416.4 18.1C415.6 15 414.9 20.4 414.9 20.4C415 23 416 24.4 417.9 25.2C420.5 26.3 424.2 25.3 427.2 22.7C427.4 21.3 427.4 19.6 426.7 19.1Z" fill="#333333"/>
<path d="M416.1 17.9C416.1 17.9 416.2 17.9 416.3 18C417.4 18.4 422.6 20.1 423.4 21.9C424.3 24 420.7 21.5 419.6 20.3C418.4 19.1 417.3 19.5 416.3 19.4C415.3 19.3 414.6 18.1 416.1 17.9Z" fill="#333333"/>
<path d="M300 34.8001L292.6 33.7001C285.1 32.6001 277.9 37.4001 276.2 44.8001L262.5 102.2" stroke="#7DE3F4" stroke-width="2" stroke-miterlimit="10" stroke-linecap="round" stroke-linejoin="round"/>
<path d="M304.6 41.2999L294.1 39.6999C288.3 38.7999 282.8 42.5999 281.4 48.2999L267 108.7" stroke="#7DE3F4" stroke-width="2" stroke-miterlimit="10" stroke-linecap="round" stroke-linejoin="round"/>
<path d="M343.6 11.6L317.9 26.2L339.9 65.1L365.6 50.5L343.6 11.6Z" fill="#3B3E54"/>
<path d="M363.2 36.8C367 29.5 364.1 20.4 356.8 16.6C349.5 12.8 340.4 15.7 336.6 23C332.8 30.3 335.7 39.4 343 43.2C350.4 47 359.4 44.1 363.2 36.8Z" stroke="#3B3E54" stroke-width="3" stroke-miterlimit="10"/>
<path d="M309.9 41.8L296.2 27.9L291 46.7L309.9 41.8Z" fill="#3B3E54"/>
<path d="M332.8 48.2L302.2 39.7" stroke="#3B3E54" stroke-width="5" stroke-miterlimit="10"/>
<path d="M309.9 41.8L322.6 28.4" stroke="#3B3E54" stroke-width="3" stroke-miterlimit="10"/>
<path d="M29.9001 149C21.4001 137.4 14.3001 124.9 8.70011 111.6C5.80011 103.7 3.70011 95.4 2.50011 87.1C-0.299891 72.1 0.100109 56.6 3.80011 41.8C5.70011 34.4 9.00011 27.5 13.6001 21.4C18.2001 15.3 24.0001 10.1 30.5001 6.29999C41.7001 0.599994 54.6001 -1.10001 66.9001 1.49999C71.3001 2.19999 75.6001 3.79999 79.5001 6.09999C83.3001 8.59999 86.5001 11.8 89.1001 15.4C101.5 32.3 107.6 53 106.5 73.9C105.3 94.7 99.6001 115 89.7001 133.4C83.3001 145.6 76.1001 157.2 68.0001 168.3C66.0001 171.1 63.9001 173.9 61.8001 176.7C60.5001 178.5 57.7001 183.9 55.6001 184.5C52.4001 185.4 45.4001 171.9 43.5001 169.2C39.0001 162.6 34.5001 155.7 29.9001 149Z" fill="#67D4E6"/>
<path fill-rule="evenodd" clip-rule="evenodd" d="M51.1002 348.1L52.3002 156.1L27.7002 109.7H32.1002L52.4002 144.8L52.8002 85.3C48.3002 77.8 35.8002 58.1 35.8002 58.1L39.4002 57.4L52.9002 77.6L53.1002 41.1H57.1002L57.4002 76L73.0002 55L76.0002 56.6L57.5002 83.9L57.8002 122.3L80.1002 88.3L81.4002 91.9L57.9002 131.8L59.9002 348.2H51.1002V348.1Z" fill="#4FC5D8"/>
<path d="M372.7 123.5C371.1 123.5 369.5 123.9 368.2 124.7C366.8 125.5 365.7 126.7 364.8 128.1C364.1 126.9 363.1 126.1 361.8 125.7C360.5 125.3 359.2 125.4 358 126C357.6 123.9 356.5 122 354.8 120.6C353.2 119.2 351.1 118.5 349 118.5C348.1 118.5 347.3 118.6 346.5 118.9C345.6 116.3 343.8 114.2 341.4 112.8C339.1 111.4 336.3 111 333.7 111.4C331.1 111.9 328.7 113.3 327 115.4C325.3 117.5 324.3 120.2 324.3 122.9C324.3 123.6 324.4 124.2 324.5 124.9C323.9 124.7 323.4 124.7 322.8 124.7C321.7 124.7 320.6 125 319.7 125.5C318.7 126 317.9 126.8 317.3 127.7C316.9 127.6 316.5 127.5 316 127.5C315.7 127.5 315.3 127.5 315 127.6C314.4 126.8 313.6 126.1 312.7 125.8C311.8 125.4 310.8 125.3 309.8 125.5C308.8 125.7 307.9 126.2 307.2 126.8C306.5 127.5 306 128.4 305.7 129.4H381.3C380.6 127.6 379.4 126.1 377.9 125.1C376.4 124.1 374.6 123.5 372.7 123.5Z" fill="#E5F8FB"/>
<path d="M150.7 140.3C149.4 140.3 148.1 140.7 147 141.3C145.9 142 144.9 142.9 144.2 144.1C143.7 143.1 142.8 142.4 141.7 142.1C140.7 141.8 139.6 141.9 138.6 142.3C138.3 140.6 137.3 139 136 137.9C134.7 136.8 133 136.2 131.3 136.2C130.6 136.2 129.9 136.3 129.2 136.5C128.4 134.4 127 132.6 125.1 131.5C123.2 130.4 121 130 118.8 130.4C116.6 130.8 114.7 132 113.3 133.7C111.9 135.4 111.1 137.6 111.1 139.9C111.1 140.5 111.1 141 111.2 141.5C110.7 141.4 110.3 141.3 109.8 141.3C108.9 141.3 108 141.5 107.2 141.9C106.4 142.3 105.7 142.9 105.2 143.7C104.9 143.6 104.5 143.6 104.2 143.6C103.9 143.6 103.6 143.6 103.4 143.7C102.9 143 102.3 142.5 101.5 142.2C100.7 141.9 99.8998 141.8 99.0998 142C98.2998 142.2 97.5998 142.5 96.9998 143.1C96.3998 143.7 95.9998 144.4 95.7998 145.2H157.8C157.2 143.8 156.3 142.5 155 141.7C153.7 140.8 152.2 140.3 150.7 140.3Z" fill="#E5F8FB"/>
</g>
<defs>
<linearGradient id="paint0_linear_58_1467" x1="192.186" y1="159.61" x2="192.186" y2="293.318" gradientUnits="userSpaceOnUse">
<stop stop-color="#7DE3F4" stop-opacity="0.45"/>
<stop offset="1" stop-color="#7DE3F4" stop-opacity="0"/>
</linearGradient>
<linearGradient id="paint1_linear_58_1467" x1="293.186" y1="221.051" x2="293.186" y2="299.048" gradientUnits="userSpaceOnUse">
<stop stop-color="#7DE3F4" stop-opacity="0.45"/>
<stop offset="1" stop-color="#7DE3F4" stop-opacity="0"/>
</linearGradient>
<clipPath id="clip0_58_1467">
<rect width="528" height="354" fill="white"/>
</clipPath>
</defs>
</svg>
